<svg xmlns="http://www.w3.org/2000/svg" xmlns:xlink="http://www.w3.org/1999/xlink" width="30.48mm" height="46.457mm" viewBox="4010 3265 120 182.9"><title></title><style type="text/css">
*[layerid="1"] {stroke:#FF0000;fill:#FF0000;}
*[layerid="2"] {stroke:#0000FF;fill:#0000FF;}
*[layerid="3"] {stroke:#FFCC00;fill:#FFCC00;}
*[layerid="4"] {stroke:#66CC33;fill:#66CC33;}
*[layerid="5"] {stroke:#808080;fill:#808080;}
*[layerid="6"] {stroke:#800000;fill:#800000;}
*[layerid="7"] {stroke:#800080;fill:#800080;stroke-opacity:0.7;fill-opacity:0.7;}
*[layerid="8"] {stroke:#AA00FF;fill:#AA00FF;stroke-opacity:0.7;fill-opacity:0.7;}
*[layerid="9"] {stroke:#6464FF;fill:#6464FF;}
*[layerid="10"] {stroke:#FF00FF;fill:#FF00FF;}
*[layerid="11"] {stroke:#C0C0C0;fill:#C0C0C0;}
*[layerid="12"] {stroke:#FFFFFF;fill:#FFFFFF;}
*[layerid="13"] {stroke:#33CC99;fill:#33CC99;}
*[layerid="14"] {stroke:#5555FF;fill:#5555FF;}
*[layerid="15"] {stroke:#F022F0;fill:#F022F0;}
*[layerid="19"] {stroke:#66CCFF;fill:#66CCFF;}
*[layerid="21"] {stroke:#999966;fill:#999966;}
*[layerid="22"] {stroke:#008000;fill:#008000;}
*[layerid="23"] {stroke:#00FF00;fill:#00FF00;}
*[layerid="24"] {stroke:#BC8E00;fill:#BC8E00;}
*[layerid="25"] {stroke:#70DBFA;fill:#70DBFA;}
*[layerid="26"] {stroke:#00CC66;fill:#00CC66;}
*[layerid="27"] {stroke:#9966FF;fill:#9966FF;}
*[layerid="28"] {stroke:#800080;fill:#800080;}
*[layerid="29"] {stroke:#008080;fill:#008080;}
*[layerid="30"] {stroke:#15935F;fill:#15935F;}
*[layerid="31"] {stroke:#000080;fill:#000080;}
*[layerid="32"] {stroke:#00B400;fill:#00B400;}
*[layerid="33"] {stroke:#2E4756;fill:#2E4756;}
*[layerid="34"] {stroke:#99842F;fill:#99842F;}
*[layerid="35"] {stroke:#FFFFAA;fill:#FFFFAA;}
*[layerid="36"] {stroke:#99842F;fill:#99842F;}
*[layerid="37"] {stroke:#2E4756;fill:#2E4756;}
*[layerid="38"] {stroke:#3535FF;fill:#3535FF;}
*[layerid="39"] {stroke:#8000BC;fill:#8000BC;}
*[layerid="40"] {stroke:#43AE5F;fill:#43AE5F;}
*[layerid="41"] {stroke:#C3ECCE;fill:#C3ECCE;}
*[layerid="42"] {stroke:#728978;fill:#728978;}
*[layerid="43"] {stroke:#39503F;fill:#39503F;}
*[layerid="44"] {stroke:#0C715D;fill:#0C715D;}
*[layerid="45"] {stroke:#5A8A80;fill:#5A8A80;}
*[layerid="46"] {stroke:#2B937E;fill:#2B937E;}
*[layerid="47"] {stroke:#23999D;fill:#23999D;}
*[layerid="48"] {stroke:#45B4E3;fill:#45B4E3;}
*[layerid="49"] {stroke:#215DA1;fill:#215DA1;}
*[layerid="50"] {stroke:#4564D7;fill:#4564D7;}
*[layerid="51"] {stroke:#6969E9;fill:#6969E9;}
*[layerid="52"] {stroke:#9069E9;fill:#9069E9;}
*[layerid="99"] {stroke:#00CCCC;fill:#00CCCC;stroke-opacity:0.6;fill-opacity:0.6;}
*[layerid="100"] {stroke:#CC9999;fill:#CC9999;}
*[layerid="101"] {stroke:#66FFCC;fill:#66FFCC;}
*[layerid="Hole"] {stroke:#222222;fill:#222222;}
*[layerid="DRCError"] {stroke:#FAD609;fill:#FAD609;}
*[fill="none"] {fill: none;}
*[stroke="none"] {stroke: none;}
path, polyline, polygon, line {stroke-linecap:round;}
g[c_partid="part_pad"][layerid="1"] ellipse:not([c_etype="pad_outer"]) {fill:#FF0000;}
g[c_partid="part_pad"][layerid="1"] polygon:not([c_etype="pad_outer"]) {fill:#FF0000;}
g[c_partid="part_pad"][layerid="1"] polyline:not([c_etype="pad_outer"]) {stroke:#FF0000;}
g[c_partid="part_pad"][layerid="2"] ellipse:not([c_etype="pad_outer"]) {fill:#0000FF;}
g[c_partid="part_pad"][layerid="2"] polygon:not([c_etype="pad_outer"]) {fill:#0000FF;}
g[c_partid="part_pad"][layerid="2"] polyline:not([c_etype="pad_outer"]) {stroke:#0000FF;}
g[c_partid="part_pad"][layerid="11"] ellipse:not([c_etype="pad_outer"]) {fill:#C0C0C0;}
g[c_partid="part_pad"][layerid="11"] polygon:not([c_etype="pad_outer"]) {fill:#C0C0C0;}
g[c_partid="part_pad"][layerid="11"] polyline:not([c_etype="pad_outer"]) {stroke:#C0C0C0;}
g[c_partid="part_pad"][layerid="11"] circle {fill:#222222;}
g[c_partid="part_pad"][layerid="11"] > polyline:nth-of-type(2) {stroke:#222222;}
g[c_partid="part_pad"][layerid="11"][c_shape="ELLIPSE"]  polyline:nth-last-of-type(1) {stroke:#222222;}
g[c_partid="part_pad"][layerid="11"][c_shape="RECT"]  polyline:nth-last-of-type(1) {stroke:#222222;}
g[c_partid="part_pad"][layerid="11"][c_shape="POLYGON"]  polyline:nth-last-of-type(1) {stroke:#222222;}
g[c_partid="part_via"] > * + circle, #gCurParts g[c_partid="part_via"] > * + circle {fill:#222222;}
g[c_partid="part_pad"] > polygon[c_etype="pad_outer"], #gCurParts g[c_partid="part_pad"] > polygon[c_etype="pad_outer"] {stroke-linejoin: miter;stroke-miterlimit: 100;}
g[c_partid="part_hole"] > circle {fill: #222222;}path, polyline, polygon {stroke-linejoin:round;}
rect, circle, ellipse, polyline, line, polygon, path {shape-rendering:crispEdges;}
</style>
<rect x="4010" y="3265" width="120" height="182.9" fill="#000000" stroke="none"/><g transform="matrix(-1, 0, 0, 1, 8140, 0)"><path d="M 4087.5129 3406.8758 L 4087.36875 3406.90914 4087.22234 3406.88781 4087.0937 3406.81472 4087.00043 3406.69987 4086.86432 3406.44834 4086.63119 3406.14882 4086.35194 3405.89175 4086.03419 3405.68416 4085.6866 3405.53169 4085.28736 3405.43059 4085.13126 3405.35159 4085.02381 3405.21354 4084.98555 3405.04283 4084.98555 3403.3726 4083.31108 3403.3726 4083.36514 3403.60945 4083.52827 3404.02507 4083.75151 3404.41175 4084.02636 3404.7564 4084.09586 3404.8879 4084.11251 3405.03569 4084.07402 3405.17935 4083.9857 3405.29902 4083.85977 3405.37815 4083.71363 3405.4058 4081.41354 3405.4058 4081.01874 3405.43851 4080.6508 3405.53169 4080.30321 3405.68416 4080.18951 3405.75844 4080.08486 3405.80695 4079.97073 3405.82357 4079.41228 3405.82357 4079.28705 3405.80347 4078.80896 3405.55681 4078.43626 3405.44268 4078.04963 3405.39317 4077.6602 3405.40971 4077.27916 3405.49183 4076.91749 3405.63716 4076.58088 3405.84442 4076.43317 3405.89897 4076.27585 3405.89229 4076.1333 3405.82541 4076.00741 3405.7323 4075.72184 3405.58832 4075.59795 3405.49114 4075.52115 3405.35368 4075.50337 3405.19722 4075.5258 3404.9336 4075.49275 3404.54522 4075.39453 3404.16801 4075.23398 3403.81283 4075.01571 3403.48989 4074.85922 3403.32661 4074.77684 3403.19897 4074.748 3403.04983 4074.748 3396.61665 4074.7169 3396.30084 4074.63051 3396.01606 4074.49022 3395.75361 4074.28891 3395.5083 4072.1657 3393.38509 4071.92039 3393.18378 4071.65794 3393.04349 4071.37316 3392.9571 4071.05735 3392.926 4069.41 3392.926 4069.25693 3392.89555 4069.12716 3392.80884 4069.04045 3392.67907 4069.01 3392.526 4069.01 3390.16469 4069.04446 3390.00227 4069.1419 3389.86784 4069.28554 3389.78455 4069.45062 3389.76676 4069.6087 3389.81754 4069.73255 3389.92813 4070.00648 3390.20206 4070.32336 3390.42395 4070.67396 3390.58743 4071.04763 3390.68756 4071.433 3390.72127 4071.81837 3390.68756 4072.19204 3390.58743 4072.54264 3390.42395 4072.85952 3390.20206 4072.92242 3390.13916 4073.05219 3390.05245 4073.20527 3390.022 4078.44371 3390.022 4078.59678 3390.05245 4078.72655 3390.13916 4085.45751 3396.87011 4085.53896 3396.99451 4085.66839 3397.081 4087.33689 3398.7495 4087.4236 3398.87927 4087.45405 3399.03234 4087.45405 3399.723 4087.841 3399.723 4087.99407 3399.75345 4088.12384 3399.84016 4088.21055 3399.96993 4088.241 3400.123 4088.241 3402.9726 4088.21055 3403.12567 4088.12384 3403.25544 4087.99407 3403.34215 4087.841 3403.3726 4087.45405 3403.3726 4087.45405 3405.44098 4087.66745 3405.33822 4087.82305 3405.29901 4087.98155 3405.32411 4088.11743 3405.40949 4088.20881 3405.5414 4088.241 3405.69861 4088.241 3406.02071 4088.21055 3406.17378 4088.12384 3406.30355 4087.63507 3406.79233 4087.5129 3406.8758 Z M 4083.36514 3399.48615 L 4083.31108 3399.723 4084.98555 3399.723 4084.98555 3397.65462 4084.72611 3397.77955 4084.3572 3398.03107 4084.0299 3398.33477 4083.75151 3398.68385 4083.52827 3399.07053 4083.36514 3399.48615 Z M 4078.5541 3403.72889 L 4078.39521 3404.04402 4079.62122 3404.04402 4079.62122 3402.82311 4079.39023 3402.92752 4079.06729 3403.14579 4078.78588 3403.4155 4078.5541 3403.72889 Z M 4081.40078 3402.82311 L 4081.40078 3404.04402 4082.62679 3404.04402 4082.4679 3403.72889 4082.23612 3403.4155 4081.95471 3403.14579 4081.63177 3402.92752 4081.40078 3402.82311 Z " stroke-width="0" layerid="2" attachedcopperid="gge2265" c_shapetype="line" id="gge2265_0" class=""></path><path d="M 4021.42 3431.4603 L 4021.26693 3431.42985 4021.13716 3431.34314 4021.05045 3431.21337 4021.02 3431.0603 4021.02 3276.42 4021.05045 3276.26693 4021.13716 3276.13716 4021.26693 3276.05045 4021.42 3276.02 4118.58 3276.02 4118.73307 3276.05045 4118.86284 3276.13716 4118.94955 3276.26693 4118.98 3276.42 4118.98 3431.0603 4118.94955 3431.21337 4118.86284 3431.34314 4118.73307 3431.42985 4118.58 3431.4603 4021.42 3431.4603 Z M 4096 3398.21847 L 4096.38523 3398.18477 4096.75876 3398.08468 4097.10924 3397.92125 4097.42601 3397.69945 4097.69945 3397.42601 4097.92125 3397.10924 4098.08468 3396.75876 4098.18477 3396.38523 4098.21847 3396 4098.18477 3395.61477 4098.08468 3395.24124 4097.92125 3394.89076 4097.69945 3394.57399 4097.42601 3394.30055 4097.10924 3394.07875 4096.75876 3393.91532 4096.38523 3393.81523 4096.06956 3393.78761 4095.93538 3393.75166 4095.82158 3393.67198 4086.32802 3384.17842 4086.24834 3384.06462 4086.21239 3383.93044 4086.18477 3383.61477 4086.08468 3383.24124 4085.92125 3382.89076 4085.69945 3382.57399 4085.63716 3382.5117 4085.55045 3382.38193 4085.52 3382.22886 4085.52 3368.51965 4085.4889 3368.20384 4085.40251 3367.91906 4085.26222 3367.65661 4085.06091 3367.4113 4081.5887 3363.93909 4081.34339 3363.73778 4081.08094 3363.59749 4080.79616 3363.5111 4080.48035 3363.48 4066.77114 3363.48 4066.61807 3363.44955 4066.4883 3363.36284 4066.42601 3363.30055 4066.10924 3363.07875 4065.75876 3362.91532 4065.38523 3362.81523 4065 3362.78153 4064.61477 3362.81523 4064.24124 3362.91532 4063.89076 3363.07875 4063.57399 3363.30055 4063.30055 3363.57399 4063.07875 3363.89076 4062.91532 3364.24124 4062.81523 3364.61477 4062.78153 3365 4062.81523 3365.38523 4062.91532 3365.75876 4063.07875 3366.10924 4063.30055 3366.42601 4063.57399 3366.69945 4063.89076 3366.92125 4064.24124 3367.08468 4064.61477 3367.18477 4065 3367.21847 4065.38523 3367.18477 4065.75876 3367.08468 4066.10924 3366.92125 4066.42601 3366.69945 4066.4883 3366.63716 4066.61807 3366.55045 4066.77114 3366.52 4079.70471 3366.52 4079.85778 3366.55045 4079.98755 3366.63716 4082.36284 3369.01245 4082.44955 3369.14222 4082.48 3369.29529 4082.48 3382.22886 4082.44955 3382.38193 4082.36284 3382.5117 4082.30055 3382.57399 4082.07875 3382.89076 4081.91532 3383.24124 4081.81523 3383.61477 4081.78153 3384 4081.81523 3384.38523 4081.91532 3384.75876 4082.07875 3385.10924 4082.30055 3385.42601 4082.57399 3385.69945 4082.89076 3385.92125 4083.24124 3386.08468 4083.61477 3386.18477 4083.93044 3386.21239 4084.06462 3386.24834 4084.17842 3386.32802 4093.67198 3395.82158 4093.75166 3395.93538 4093.78761 3396.06956 4093.81523 3396.38523 4093.91532 3396.75876 4094.07875 3397.10924 4094.30055 3397.42601 4094.57399 3397.69945 4094.89076 3397.92125 4095.24124 3398.08468 4095.61477 3398.18477 4096 3398.21847 Z M 4062.642 3355.84627 L 4063.02737 3355.81256 4063.40104 3355.71243 4063.75164 3355.54895 4064.06852 3355.32706 4064.34206 3355.05352 4064.56395 3354.73664 4064.72743 3354.38604 4064.82756 3354.01237 4064.86127 3353.627 4064.82756 3353.24163 4064.72743 3352.86796 4064.56395 3352.51736 4064.34206 3352.20048 4064.06852 3351.92694 4063.75164 3351.70505 4063.40104 3351.54157 4063.02737 3351.44144 4062.71069 3351.41374 4062.5765 3351.37778 4062.46271 3351.2981 4062.08816 3350.92355 4062.00145 3350.79378 4061.971 3350.64071 4061.971 3325.96432 4062.00734 3325.79773 4062.10976 3325.66141 4062.25965 3325.58013 4062.42977 3325.56866 4062.58921 3325.62908 4062.85771 3325.80385 4063.07677 3325.90935 4063.07677 3323.92323 4062.371 3323.92323 4062.21793 3323.89278 4062.08816 3323.80607 4062.00145 3323.6763 4061.971 3323.52322 4061.971 3320.87629 4062.00145 3320.72322 4062.08816 3320.59345 4062.48767 3320.19393 4062.61744 3320.10722 4062.77052 3320.07677 4063.07677 3320.07677 4063.07677 3319.77052 4063.10722 3319.61744 4063.19393 3319.48767 4063.49845 3319.18316 4063.62822 3319.09645 4063.78129 3319.066 4066.04971 3319.066 4066.20278 3319.09645 4066.33255 3319.18316 4066.80607 3319.65667 4066.89278 3319.78644 4066.92323 3319.93952 4066.92323 3320.07677 4067.06048 3320.07677 4067.21356 3320.10722 4067.34333 3320.19393 4067.81684 3320.66745 4067.90355 3320.79722 4067.934 3320.95029 4067.934 3323.28535 4067.95357 3323.48402 4067.9353 3323.6487 4067.85187 3323.79185 4067.71759 3323.88891 4067.55549 3323.92323 4066.92323 3323.92323 4066.92323 3325.90935 4067.14229 3325.80385 4067.61113 3325.49867 4068.03709 3325.13604 4068.27766 3324.87115 4068.40748 3324.77627 4068.56416 3324.74018 4068.7224 3324.7687 4068.85662 3324.85722 4075.9453 3331.94591 4076.19061 3332.14722 4076.45306 3332.28751 4076.73784 3332.3739 4077.05365 3332.405 4084.03673 3332.405 4084.18981 3332.43545 4084.31958 3332.52216 4084.38248 3332.58506 4084.69936 3332.80695 4085.04996 3332.97043 4085.42363 3333.07056 4085.809 3333.10427 4086.19437 3333.07056 4086.56804 3332.97043 4086.91864 3332.80695 4087.23552 3332.58506 4087.50906 3332.31152 4087.73095 3331.99464 4087.89443 3331.64404 4087.99456 3331.27037 4088.02827 3330.885 4087.99456 3330.49963 4087.89443 3330.12596 4087.73095 3329.77536 4087.50906 3329.45848 4087.23552 3329.18494 4086.91864 3328.96305 4086.56804 3328.79957 4086.19437 3328.69944 4085.809 3328.66573 4085.42363 3328.69944 4085.04996 3328.79957 4084.69936 3328.96305 4084.38248 3329.18494 4084.31958 3329.24784 4084.18981 3329.33455 4084.03673 3329.365 4077.82929 3329.365 4077.67622 3329.33455 4077.54645 3329.24784 4075.30985 3327.01124 4075.21721 3326.86629 4075.19402 3326.69583 4075.24457 3326.53139 4075.35951 3326.4034 4075.51757 3326.33551 4076.10802 3326.22263 4076.63828 3326.04657 4077.14229 3325.80385 4077.61113 3325.49867 4078.03709 3325.13604 4078.41318 3324.72192 4078.73323 3324.26311 4078.99198 3323.76713 4079.18519 3323.24214 4079.30967 3322.69675 4079.36338 3322.13993 4079.34545 3321.5808 4079.25617 3321.02856 4079.097 3320.49227 4078.87056 3319.98073 4078.58057 3319.50235 4078.23178 3319.06499 4077.82992 3318.67581 4077.3816 3318.34122 4076.89417 3318.06671 4076.37564 3317.85678 4075.83453 3317.71488 4075.27971 3317.64334 4074.72029 3317.64334 4074.16547 3317.71488 4073.62436 3317.85678 4073.10583 3318.06671 4072.6184 3318.34122 4072.17008 3318.67581 4071.76822 3319.06499 4071.43843 3319.47853 4071.3182 3319.57977 4071.16825 3319.62687 4071.01173 3319.61256 4070.87281 3319.53905 4070.77293 3319.4177 4070.71622 3319.31161 4070.51491 3319.0663 4067.9337 3316.48509 4067.68839 3316.28378 4067.58034 3316.22602 4067.45418 3316.12013 4067.38138 3315.97239 4067.37428 3315.80783 4067.4341 3315.65437 4067.55068 3315.53802 4067.61113 3315.49867 4068.03709 3315.13604 4068.41318 3314.72192 4068.73323 3314.26311 4068.91055 3313.92323 4066.92323 3313.92323 4066.92323 3315.626 4066.89278 3315.77907 4066.80607 3315.90884 4066.6763 3315.99555 4066.52322 3316.026 4063.47678 3316.026 4063.3237 3315.99555 4063.19393 3315.90884 4063.10722 3315.77907 4063.07677 3315.626 4063.07677 3313.92323 4061.08945 3313.92323 4061.26677 3314.26311 4061.58682 3314.72192 4061.96272 3315.13583 4062.41376 3315.5187 4062.51014 3315.63979 4062.55335 3315.78841 4062.5369 3315.9423 4062.46326 3316.07843 4062.34346 3316.17642 4062.14261 3316.28378 4061.8973 3316.48509 4059.39009 3318.9923 4059.18878 3319.23761 4059.04849 3319.50006 4058.9621 3319.78484 4058.931 3320.10065 4058.931 3351.41635 4058.9621 3351.73216 4059.04849 3352.01694 4059.18878 3352.27939 4059.39009 3352.5247 4060.3131 3353.44771 4060.39278 3353.5615 4060.42874 3353.69569 4060.45644 3354.01237 4060.55657 3354.38604 4060.72005 3354.73664 4060.94194 3355.05352 4061.21548 3355.32706 4061.53236 3355.54895 4061.88296 3355.71243 4062.25663 3355.81256 4062.642 3355.84627 Z M 4068.90084 3411.7389 L 4069.21665 3411.77 4086.30735 3411.77 4086.62316 3411.7389 4086.90794 3411.65251 4087.17039 3411.51222 4087.4157 3411.31091 4090.82191 3407.9047 4091.02322 3407.65939 4091.16351 3407.39694 4091.2499 3407.11216 4091.281 3406.79635 4091.281 3399.04365 4091.2499 3398.72784 4091.16351 3398.44306 4091.02322 3398.18061 4090.82191 3397.9353 4080.41392 3387.52731 4080.32502 3387.39215 4080.29693 3387.23284 4080.33424 3387.07542 4080.40343 3386.92704 4080.50356 3386.55337 4080.53727 3386.168 4080.50356 3385.78263 4080.40343 3385.40896 4080.23995 3385.05836 4080.01806 3384.74148 4079.74452 3384.46794 4079.42764 3384.24605 4079.07704 3384.08257 4078.70337 3383.98244 4078.318 3383.94873 4077.93263 3383.98244 4077.55896 3384.08257 4077.20836 3384.24605 4076.89148 3384.46794 4076.82858 3384.53084 4076.69881 3384.61755 4076.54573 3384.648 4067.50965 3384.648 4067.19384 3384.6791 4066.90906 3384.76549 4066.64661 3384.90578 4066.41657 3385.09457 4066.22778 3385.32461 4066.08749 3385.58706 4066.0011 3385.87184 4065.97 3386.18765 4065.97 3388.73985 4065.93922 3388.89372 4065.85162 3389.02391 4064.18908 3390.67216 4064.07573 3390.75098 4063.94233 3390.78657 4063.61477 3390.81523 4063.24124 3390.91532 4062.89076 3391.07875 4062.57399 3391.30055 4062.30055 3391.57399 4062.07875 3391.89076 4061.91532 3392.24124 4061.81523 3392.61477 4061.78153 3393 4061.81523 3393.38523 4061.91532 3393.75876 4062.07875 3394.10924 4062.30055 3394.42601 4062.57399 3394.69945 4062.89076 3394.92125 4063.24124 3395.08468 4063.61477 3395.18477 4063.81235 3395.23042 4063.93164 3395.32196 4064.00871 3395.45107 4064.03266 3395.59951 4064.00012 3395.74631 4063.91568 3395.87072 4062.71809 3397.0683 4062.51678 3397.31361 4062.37649 3397.57606 4062.2901 3397.86084 4062.259 3398.17665 4062.259 3403.0401 4062.22349 3403.20486 4062.11977 3403.34345 4061.8749 3403.64672 4061.6848 3403.98701 4061.55495 3404.35453 4061.48908 3404.73871 4061.48908 3405.12849 4061.49549 3405.3011 4061.45045 3405.42858 4061.36551 3405.53377 4061.16949 3405.63716 4060.83281 3405.84446 4060.6851 3405.89902 4060.52778 3405.89233 4060.38523 3405.82545 4060.25941 3405.7324 4059.91136 3405.55691 4059.53866 3405.44278 4059.15203 3405.39327 4058.7626 3405.40981 4058.38156 3405.49193 4058.01989 3405.63726 4057.81391 3405.76409 4057.71317 3405.80834 4057.60419 3405.82348 4057.38477 3405.82348 4057.38477 3405.97095 4057.36193 3406.1042 4057.29599 3406.22223 4057.1505 3406.40242 4056.96056 3406.74242 4056.81867 3407.14611 4056.73046 3407.28985 4056.59085 3407.38446 4056.42465 3407.41312 4056.26142 3407.37073 4056.13016 3407.26484 4056.05421 3407.11425 4056.00478 3406.92443 4055.84423 3406.56925 4055.67382 3406.31712 4055.62276 3406.21026 4055.60522 3406.09313 4055.60522 3405.82348 4055.29687 3405.82348 4055.17165 3405.80337 4054.69484 3405.55766 4054.32215 3405.44353 4053.93553 3405.39402 4053.54611 3405.41056 4053.31704 3405.45993 4053.14468 3405.45909 4052.98867 3405.38579 4052.87799 3405.25366 4052.83319 3405.08723 4052.86257 3404.91739 4052.9767 3404.76083 4053.25509 3404.41175 4053.47833 3404.02507 4053.64146 3403.60945 4053.69552 3403.3726 4052.02105 3403.3726 4052.02105 3405.64113 4052.12566 3405.76057 4052.17556 3405.9113 4052.16289 3406.06957 4052.08964 3406.21044 4051.93404 3406.40315 4051.74395 3406.74343 4051.6141 3407.11094 4051.54822 3407.49511 4051.54822 3407.88489 4051.6141 3408.26906 4051.74395 3408.63657 4051.93404 3408.97685 4052.17891 3409.28011 4052.4715 3409.53763 4052.80341 3409.74199 4053.16508 3409.88732 4053.54611 3409.96944 4053.93553 3409.98598 4054.32215 3409.93647 4054.69484 3409.82234 4055.04289 3409.64686 4055.35627 3409.41509 4055.62597 3409.13368 4055.84423 3408.81075 4056.00532 3408.45438 4056.05563 3408.26622 4056.13221 3408.11655 4056.26353 3408.01158 4056.42638 3407.96983 4056.592 3407.9987 4056.73114 3408.09307 4056.81921 3408.23627 4056.9604 3408.63589 4057.1505 3408.97618 4057.39537 3409.27945 4057.68797 3409.53697 4058.01989 3409.74134 4058.38156 3409.88667 4058.7626 3409.96879 4059.15203 3409.98533 4059.53866 3409.93582 4059.91136 3409.82169 4060.25941 3409.6462 4060.38538 3409.55304 4060.52793 3409.48616 4060.68525 3409.47947 4060.83295 3409.53403 4061.16949 3409.74124 4061.53116 3409.88657 4061.9122 3409.96869 4062.30163 3409.98523 4062.68826 3409.93572 4063.06096 3409.82159 4063.40901 3409.6461 4063.5349 3409.55299 4063.67745 3409.48611 4063.83477 3409.47943 4063.98248 3409.53398 4064.31909 3409.74124 4064.68076 3409.88657 4065.0618 3409.96869 4065.45123 3409.98523 4065.84052 3409.93538 4066.00695 3409.94922 4066.15323 3410.02981 4066.25385 3410.1631 4066.40705 3410.49164 4066.62894 3410.80852 4066.90248 3411.08206 4067.21936 3411.30395 4067.56996 3411.46743 4067.94363 3411.56756 4068.329 3411.60127 4068.48984 3411.60386 4068.61606 3411.65251 4068.90084 3411.7389 Z M 4103.441 3368.65827 L 4103.82637 3368.62456 4104.20004 3368.52443 4104.55064 3368.36095 4104.86752 3368.13906 4105.14106 3367.86552 4105.36295 3367.54864 4105.52643 3367.19804 4105.62656 3366.82437 4105.66027 3366.439 4105.62656 3366.05363 4105.52643 3365.67996 4105.36295 3365.32936 4105.14106 3365.01248 4104.86752 3364.73894 4104.55064 3364.51705 4104.20004 3364.35357 4103.82637 3364.25344 4103.50969 3364.22574 4103.3755 3364.18978 4103.26171 3364.1101 4094.5727 3355.42109 4094.32739 3355.21978 4094.06494 3355.07949 4093.78016 3354.9931 4093.46435 3354.962 4080.10327 3354.962 4079.95019 3354.93155 4079.82042 3354.84484 4079.75752 3354.78194 4079.44064 3354.56005 4079.09004 3354.39657 4078.71637 3354.29644 4078.331 3354.26273 4077.94563 3354.29644 4077.57196 3354.39657 4077.22136 3354.56005 4076.90448 3354.78194 4076.63094 3355.05548 4076.40905 3355.37236 4076.24557 3355.72296 4076.14544 3356.09663 4076.11173 3356.482 4076.14544 3356.86737 4076.24557 3357.24104 4076.40905 3357.59164 4076.63094 3357.90852 4076.90448 3358.18206 4077.22136 3358.40395 4077.57196 3358.56743 4077.94563 3358.66756 4078.331 3358.70127 4078.71637 3358.66756 4079.09004 3358.56743 4079.44064 3358.40395 4079.75752 3358.18206 4079.82042 3358.11916 4079.95019 3358.03245 4080.10327 3358.002 4092.68871 3358.002 4092.84178 3358.03245 4092.97155 3358.11916 4101.1121 3366.25971 4101.19178 3366.3735 4101.22774 3366.50769 4101.25544 3366.82437 4101.35557 3367.19804 4101.51905 3367.54864 4101.74094 3367.86552 4102.01448 3368.13906 4102.33136 3368.36095 4102.68196 3368.52443 4103.05563 3368.62456 4103.441 3368.65827 Z M 4098 3338.71847 L 4098.38523 3338.68477 4098.75876 3338.58468 4099.10924 3338.42125 4099.42601 3338.19945 4099.69945 3337.92601 4099.92125 3337.60924 4100.08468 3337.25876 4100.18477 3336.88523 4100.21847 3336.5 4100.18477 3336.11477 4100.08468 3335.74124 4099.92125 3335.39076 4099.69945 3335.07399 4099.63716 3335.0117 4099.55045 3334.88193 4099.52 3334.72886 4099.52 3293.77114 4099.55045 3293.61807 4099.63716 3293.4883 4099.69945 3293.42601 4099.92125 3293.10924 4100.08468 3292.75876 4100.18477 3292.38523 4100.21847 3292 4100.18477 3291.61477 4100.08468 3291.24124 4099.92125 3290.89076 4099.69945 3290.57399 4099.42601 3290.30055 4099.10924 3290.07875 4098.75876 3289.91532 4098.38523 3289.81523 4098 3289.78153 4097.61477 3289.81523 4097.24124 3289.91532 4096.89076 3290.07875 4096.57399 3290.30055 4096.30055 3290.57399 4096.07875 3290.89076 4095.91532 3291.24124 4095.81523 3291.61477 4095.78153 3292 4095.81523 3292.38523 4095.91532 3292.75876 4096.07875 3293.10924 4096.30055 3293.42601 4096.36284 3293.4883 4096.44955 3293.61807 4096.48 3293.77114 4096.48 3334.72886 4096.44955 3334.88193 4096.36284 3335.0117 4096.30055 3335.07399 4096.07875 3335.39076 4095.91532 3335.74124 4095.81523 3336.11477 4095.78153 3336.5 4095.81523 3336.88523 4095.91532 3337.25876 4096.07875 3337.60924 4096.30055 3337.92601 4096.57399 3338.19945 4096.89076 3338.42125 4097.24124 3338.58468 4097.61477 3338.68477 4098 3338.71847 Z M 4105.61477 3338.68477 L 4106 3338.71847 4106.38523 3338.68477 4106.75876 3338.58468 4107.10924 3338.42125 4107.42601 3338.19945 4107.69945 3337.92601 4107.92125 3337.60924 4108.08468 3337.25876 4108.18477 3336.88523 4108.21847 3336.5 4108.18477 3336.11477 4108.08468 3335.74124 4107.92125 3335.39076 4107.69945 3335.07399 4107.63716 3335.0117 4107.55045 3334.88193 4107.52 3334.72886 4107.52 3304.77114 4107.55045 3304.61807 4107.63716 3304.4883 4107.69945 3304.42601 4107.92125 3304.10924 4108.08468 3303.75876 4108.18477 3303.38523 4108.21847 3303 4108.18477 3302.61477 4108.08468 3302.24124 4107.92125 3301.89076 4107.69945 3301.57399 4107.42601 3301.30055 4107.10924 3301.07875 4106.75876 3300.91532 4106.38523 3300.81523 4106 3300.78153 4105.61477 3300.81523 4105.24124 3300.91532 4104.89076 3301.07875 4104.57399 3301.30055 4104.30055 3301.57399 4104.07875 3301.89076 4103.91532 3302.24124 4103.81523 3302.61477 4103.78153 3303 4103.81523 3303.38523 4103.91532 3303.75876 4104.07875 3304.10924 4104.30055 3304.42601 4104.36284 3304.4883 4104.44955 3304.61807 4104.48 3304.77114 4104.48 3334.72886 4104.44955 3334.88193 4104.36284 3335.0117 4104.30055 3335.07399 4104.07875 3335.39076 4103.91532 3335.74124 4103.81523 3336.11477 4103.78153 3336.5 4103.81523 3336.88523 4103.91532 3337.25876 4104.07875 3337.60924 4104.30055 3337.92601 4104.57399 3338.19945 4104.89076 3338.42125 4105.24124 3338.58468 4105.61477 3338.68477 Z M 4052.5 3416.21847 L 4052.88523 3416.18477 4053.25876 3416.08468 4053.60924 3415.92125 4053.92601 3415.69945 4054.19945 3415.42601 4054.42125 3415.10924 4054.58468 3414.75876 4054.68477 3414.38523 4054.71847 3414 4054.68477 3413.61477 4054.58468 3413.24124 4054.42125 3412.89076 4054.19945 3412.57399 4053.92601 3412.30055 4053.60924 3412.07875 4053.25876 3411.91532 4052.88523 3411.81523 4052.56956 3411.78761 4052.43538 3411.75166 4052.32158 3411.67198 4048.38578 3407.73618 4048.3061 3407.62238 4048.27015 3407.4882 4048.28225 3407.34981 4048.34096 3407.2239 4048.42125 3407.10924 4048.58468 3406.75876 4048.68477 3406.38523 4048.71858 3405.99882 4048.69387 3405.69594 4048.71529 3405.53048 4048.80234 3405.38815 4048.93989 3405.29371 4049.10399 3405.26359 4049.2661 3405.30304 4049.55255 3405.44098 4049.55255 3403.3726 4047.87808 3403.3726 4047.90856 3403.50612 4047.90878 3403.68316 4047.83256 3403.84296 4047.69483 3403.9542 4047.52258 3403.99511 4047.34954 3403.95765 4047.25876 3403.91532 4046.88523 3403.81523 4046.5 3403.78153 4046.11477 3403.81523 4045.74124 3403.91532 4045.39076 3404.07875 4045.07399 3404.30055 4044.80055 3404.57399 4044.57875 3404.89076 4044.41532 3405.24124 4044.31523 3405.61477 4044.28153 3406 4044.31523 3406.38523 4044.41532 3406.75876 4044.57875 3407.10924 4044.80055 3407.42601 4044.86284 3407.4883 4044.94955 3407.61807 4044.98 3407.77114 4044.98 3407.98035 4045.0111 3408.29616 4045.09749 3408.58094 4045.23778 3408.84339 4045.43909 3409.0887 4050.17198 3413.82158 4050.25166 3413.93538 4050.28761 3414.06956 4050.31523 3414.38523 4050.41532 3414.75876 4050.57875 3415.10924 4050.80055 3415.42601 4051.07399 3415.69945 4051.39076 3415.92125 4051.74124 3416.08468 4052.11477 3416.18477 4052.5 3416.21847 Z M 4061.42714 3296.33841 L 4061.67601 3296.36645 4068.32399 3296.36645 4068.57286 3296.33841 4068.78791 3296.26316 4068.98083 3296.14194 4069.14194 3295.98083 4069.26316 3295.78791 4069.33841 3295.57286 4069.36645 3295.32399 4069.36645 3288.67601 4069.33841 3288.42714 4069.26316 3288.21209 4069.14194 3288.01917 4068.98083 3287.85806 4068.78791 3287.73684 4068.57286 3287.66159 4068.32399 3287.63355 4061.67601 3287.63355 4061.42714 3287.66159 4061.21209 3287.73684 4061.01917 3287.85806 4060.85806 3288.01917 4060.73684 3288.21209 4060.66159 3288.42714 4060.63355 3288.67601 4060.63355 3295.32399 4060.66159 3295.57286 4060.73684 3295.78791 4060.85806 3295.98083 4061.01917 3296.14194 4061.21209 3296.26316 4061.42714 3296.33841 Z M 4071.42714 3296.33841 L 4071.67601 3296.36645 4078.32399 3296.36645 4078.57286 3296.33841 4078.78791 3296.26316 4078.98083 3296.14194 4079.14194 3295.98083 4079.26316 3295.78791 4079.33841 3295.57286 4079.36645 3295.32399 4079.36645 3288.67601 4079.33841 3288.42714 4079.26316 3288.21209 4079.14194 3288.01917 4078.98083 3287.85806 4078.78791 3287.73684 4078.57286 3287.66159 4078.32399 3287.63355 4071.67601 3287.63355 4071.42714 3287.66159 4071.21209 3287.73684 4071.01917 3287.85806 4070.85806 3288.01917 4070.73684 3288.21209 4070.66159 3288.42714 4070.63355 3288.67601 4070.63355 3295.32399 4070.66159 3295.57286 4070.73684 3295.78791 4070.85806 3295.98083 4071.01917 3296.14194 4071.21209 3296.26316 4071.42714 3296.33841 Z M 4075 3316.36563 L 4075.55826 3316.32978 4076.10736 3316.22285 4076.63828 3316.04657 4077.14229 3315.80385 4077.61113 3315.49867 4078.03709 3315.13604 4078.41318 3314.72192 4078.73323 3314.26311 4078.99198 3313.76713 4079.18519 3313.24214 4079.30967 3312.69675 4079.36338 3312.13993 4079.34545 3311.5808 4079.25617 3311.02856 4079.097 3310.49227 4078.87056 3309.98073 4078.58057 3309.50235 4078.23178 3309.06499 4077.82992 3308.67581 4077.3816 3308.34122 4076.89417 3308.06671 4076.37564 3307.85678 4075.83453 3307.71488 4075.27971 3307.64334 4074.72029 3307.64334 4074.16547 3307.71488 4073.62436 3307.85678 4073.10583 3308.06671 4072.6184 3308.34122 4072.17008 3308.67581 4071.76822 3309.06499 4071.41943 3309.50235 4071.12944 3309.98073 4070.903 3310.49227 4070.74383 3311.02856 4070.65455 3311.5808 4070.63662 3312.13993 4070.69033 3312.69675 4070.81481 3313.24214 4071.00802 3313.76713 4071.26677 3314.26311 4071.58682 3314.72192 4071.96291 3315.13604 4072.38887 3315.49867 4072.85771 3315.80385 4073.36172 3316.04657 4073.89264 3316.22285 4074.44174 3316.32978 4075 3316.36563 Z M 4065 3306.36563 L 4065.55826 3306.32978 4066.10736 3306.22285 4066.63828 3306.04657 4067.14229 3305.80385 4067.61113 3305.49867 4068.03709 3305.13604 4068.41318 3304.72192 4068.73323 3304.26311 4068.99198 3303.76713 4069.18519 3303.24214 4069.30967 3302.69675 4069.36338 3302.13993 4069.34545 3301.5808 4069.25617 3301.02856 4069.097 3300.49227 4068.87056 3299.98073 4068.58057 3299.50235 4068.23178 3299.06499 4067.82992 3298.67581 4067.3816 3298.34122 4066.89417 3298.06671 4066.37564 3297.85678 4065.83453 3297.71488 4065.27971 3297.64334 4064.72029 3297.64334 4064.16547 3297.71488 4063.62436 3297.85678 4063.10583 3298.06671 4062.6184 3298.34122 4062.17008 3298.67581 4061.76822 3299.06499 4061.41943 3299.50235 4061.12944 3299.98073 4060.903 3300.49227 4060.74383 3301.02856 4060.65455 3301.5808 4060.63662 3302.13993 4060.69033 3302.69675 4060.81481 3303.24214 4061.00802 3303.76713 4061.26677 3304.26311 4061.58682 3304.72192 4061.96291 3305.13604 4062.38887 3305.49867 4062.85771 3305.80385 4063.36172 3306.04657 4063.89264 3306.22285 4064.44174 3306.32978 4065 3306.36563 Z M 4075 3306.36563 L 4075.55826 3306.32978 4076.10736 3306.22285 4076.63828 3306.04657 4077.14229 3305.80385 4077.61113 3305.49867 4078.03709 3305.13604 4078.41318 3304.72192 4078.73323 3304.26311 4078.99198 3303.76713 4079.18519 3303.24214 4079.30967 3302.69675 4079.36338 3302.13993 4079.34545 3301.5808 4079.25617 3301.02856 4079.097 3300.49227 4078.87056 3299.98073 4078.58057 3299.50235 4078.23178 3299.06499 4077.82992 3298.67581 4077.3816 3298.34122 4076.89417 3298.06671 4076.37564 3297.85678 4075.83453 3297.71488 4075.27971 3297.64334 4074.72029 3297.64334 4074.16547 3297.71488 4073.62436 3297.85678 4073.10583 3298.06671 4072.6184 3298.34122 4072.17008 3298.67581 4071.76822 3299.06499 4071.41943 3299.50235 4071.12944 3299.98073 4070.903 3300.49227 4070.74383 3301.02856 4070.65455 3301.5808 4070.63662 3302.13993 4070.69033 3302.69675 4070.81481 3303.24214 4071.00802 3303.76713 4071.26677 3304.26311 4071.58682 3304.72192 4071.96291 3305.13604 4072.38887 3305.49867 4072.85771 3305.80385 4073.36172 3306.04657 4073.89264 3306.22285 4074.44174 3306.32978 4075 3306.36563 Z M 4063.07677 3310.07677 L 4063.07677 3308.08307 4062.6184 3308.34122 4062.17008 3308.67581 4061.76822 3309.06499 4061.41943 3309.50235 4061.12944 3309.98073 4061.08692 3310.07677 4063.07677 3310.07677 Z M 4066.92323 3308.08307 L 4066.92323 3310.07677 4068.91308 3310.07677 4068.87056 3309.98073 4068.58057 3309.50235 4068.23178 3309.06499 4067.82992 3308.67581 4067.3816 3308.34122 4066.92323 3308.08307 Z M 4049.55255 3421.6127 L 4049.55255 3419.34747 4049.29311 3419.4724 4048.9242 3419.72392 4048.5969 3420.02762 4048.31851 3420.3767 4048.09527 3420.76338 4047.93214 3421.179 4047.83315 3421.6127 4049.55255 3421.6127 Z M 4087.45365 3427.92123 L 4087.71309 3427.7963 4088.082 3427.54478 4088.4093 3427.24108 4088.68769 3426.892 4088.91093 3426.50532 4089.07406 3426.0897 4089.17305 3425.656 4087.45365 3425.656 4087.45365 3427.92123 Z M 4052.02105 3427.92123 L 4052.28049 3427.7963 4052.6494 3427.54478 4052.9767 3427.24108 4053.25509 3426.892 4053.47833 3426.50532 4053.64146 3426.0897 4053.74045 3425.656 4052.02105 3425.656 4052.02105 3427.92123 Z M 4089.17305 3421.6127 L 4089.07406 3421.179 4088.91093 3420.76338 4088.68769 3420.3767 4088.4093 3420.02762 4088.082 3419.72392 4087.71309 3419.4724 4087.45365 3419.34747 4087.45365 3421.6127 4089.17305 3421.6127 Z M 4084.72571 3427.7963 L 4084.98515 3427.92123 4084.98515 3425.656 4083.26575 3425.656 4083.36474 3426.0897 4083.52787 3426.50532 4083.75111 3426.892 4084.0295 3427.24108 4084.3568 3427.54478 4084.72571 3427.7963 Z M 4049.29311 3427.7963 L 4049.55255 3427.92123 4049.55255 3425.656 4047.83315 3425.656 4047.93214 3426.0897 4048.09527 3426.50532 4048.31851 3426.892 4048.5969 3427.24108 4048.9242 3427.54478 4049.29311 3427.7963 Z M 4084.98515 3421.6127 L 4084.98515 3419.34747 4084.72571 3419.4724 4084.3568 3419.72392 4084.0295 3420.02762 4083.75111 3420.3767 4083.52787 3420.76338 4083.36474 3421.179 4083.26575 3421.6127 4084.98515 3421.6127 Z M 4053.74045 3421.6127 L 4053.64146 3421.179 4053.47833 3420.76338 4053.25509 3420.3767 4052.9767 3420.02762 4052.6494 3419.72392 4052.28049 3419.4724 4052.02105 3419.34747 4052.02105 3421.6127 4053.74045 3421.6127 Z M 4047.93214 3399.48615 L 4047.87808 3399.723 4049.55255 3399.723 4049.55255 3397.65462 4049.29311 3397.77955 4048.9242 3398.03107 4048.5969 3398.33477 4048.31851 3398.68385 4048.09527 3399.07053 4047.93214 3399.48615 Z M 4052.02105 3397.65462 L 4052.02105 3399.723 4053.69552 3399.723 4053.64146 3399.48615 4053.47833 3399.07053 4053.25509 3398.68385 4052.9767 3398.33477 4052.6494 3398.03107 4052.28049 3397.77955 4052.02105 3397.65462 Z M 4058.61079 3404.04393 L 4058.4519 3403.72879 4058.22012 3403.4154 4057.93871 3403.14569 4057.61577 3402.92742 4057.38477 3402.82301 4057.38477 3404.04393 4058.61079 3404.04393 Z M 4054.5381 3403.72879 L 4054.37921 3404.04393 4055.60522 3404.04393 4055.60522 3402.82301 4055.37423 3402.92742 4055.05129 3403.14569 4054.76988 3403.4154 4054.5381 3403.72879 Z " stroke-width="0" layerid="2" attachedcopperid="gge2265" c_shapetype="line" id="gge2265_1" class=""></path><polyline points="4096 3396 4084 3384" stroke-width="1"  stroke-linecap="round" fill="none" layerid="2" net="+3.3V" id="gge2757" locked="0" /><polyline points="4065 3365 4080.5 3365 4084 3368.5 4084 3384" stroke-width="1"  stroke-linecap="round" fill="none" layerid="2" net="+3.3V" id="gge2610" locked="0" /><polyline points="4050.787 3401.548 4036.552 3401.548 4030.876 3395.872" stroke-width="1"  stroke-linecap="round" fill="none" layerid="2" net="GND" id="gge2110" locked="0" /><polyline points="4053.109 3401.548 4050.787 3401.548" stroke-width="1"  stroke-linecap="round" fill="none" layerid="2" net="GND" id="gge2111" locked="0" /><polyline points="4053.109 3401.548 4056.495 3404.934" stroke-width="1"  stroke-linecap="round" fill="none" layerid="2" net="GND" id="gge2119" locked="0" /><polyline points="4056.495 3417.927 4056.495 3404.934" stroke-width="1"  stroke-linecap="round" fill="none" layerid="2" net="GND" id="gge2132" locked="0" /><polyline points="4050.787 3423.635 4056.495 3417.927" stroke-width="1"  stroke-linecap="round" fill="none" layerid="2" net="GND" id="gge2133" locked="0" /><polyline points="4086.22 3423.635 4062.203 3423.635 4056.495 3417.927" stroke-width="1"  stroke-linecap="round" fill="none" layerid="2" net="GND" id="gge2134" locked="0" /><polyline points="4086.22 3401.548 4083.897 3401.548 4080.511 3404.934" stroke-width="1"  stroke-linecap="round" fill="none" layerid="2" net="GND" id="gge2135" locked="0" /><polyline points="4067.49 3386.168 4067.49 3394.446" stroke-width="1"  stroke-linecap="round" fill="none" layerid="2" net="+5V" id="gge2139" locked="0" /><polyline points="4067.49 3386.168 4078.318 3386.168" stroke-width="1"  stroke-linecap="round" fill="none" layerid="2" net="+5V" id="gge2141" locked="0" /><polyline points="4067.49 3394.446 4071.077 3394.446 4073.228 3396.597 4073.228 3404.934" stroke-width="1"  stroke-linecap="round" fill="none" layerid="2" net="+5V" id="gge2145" locked="0" /><polyline points="4085.809 3330.885 4077.034 3330.885 4069.454 3323.305 4069.454 3320.155 4066.845 3317.546 4062.986 3317.546 4060.451 3320.081 4060.451 3351.436 4062.642 3353.627" stroke-width="1"  stroke-linecap="round" fill="none" layerid="2" net="DTR" id="gge2164" locked="0" /><polyline points="4078.331 3356.482 4093.484 3356.482 4103.441 3366.439" stroke-width="1"  stroke-linecap="round" fill="none" layerid="2" net="RTS" id="gge2170" locked="0" /><polyline points="4066.929 3404.934 4066.929 3400.145 4069.896 3397.178" stroke-width="1"  stroke-linecap="round" fill="none" layerid="2" net="D-" id="gge2183" locked="0" /><polyline points="4068.329 3409.382 4069.197 3410.25 4086.327 3410.25 4089.761 3406.816 4089.761 3399.024 4079.239 3388.502 4071.433 3388.502" stroke-width="1"  stroke-linecap="round" fill="none" layerid="2" net="D+" id="gge2189" locked="0" /><polyline points="4098 3336.5 4098 3292" stroke-width="1"  stroke-linecap="round" fill="none" layerid="2" net="RXD" id="gge2242" locked="0" /><polyline points="4106 3336.5 4106 3303" stroke-width="1"  stroke-linecap="round" fill="none" layerid="2" net="TXD" id="gge2237" locked="0" /><polyline points="4052.5 3414 4046.5 3408 4046.5 3406" stroke-width="1"  stroke-linecap="round" fill="none" layerid="2" net="R2_2" id="gge2248" locked="0" /><polyline points="4067.49 3394.446 4063.779 3398.157 4063.779 3404.934" stroke-width="1"  stroke-linecap="round" fill="none" layerid="2" net="+5V" id="gge2144" locked="0" /><polyline points="4056.26 3390 4056.33 3398.33" stroke-width="1"  stroke-linecap="round" fill="none" layerid="2" net="GND" id="gge2261" locked="0" /><polyline points="4064 3393 4067.49 3389.54" stroke-width="1"  stroke-linecap="round" fill="none" layerid="2" net="+5V" id="gge2263" locked="0" /><polyline points="4056.3181 3396.908 4062 3391.2261 4062 3367.7144 4056.5 3362.2144 4056.5 3332.5" stroke-width="1"  stroke-linecap="round" fill="none" layerid="2" net="GND" id="gge2425" locked="0" /></g><g transform="matrix(-1, 0, 0, 1, 8140, 0)"><g c_partid="part_pcbtext" c_etype="pinpart" c_origin="4058,3296" c_rotation="0" c_mirror="1" id="gge2389" locked="0" layerid="4" c_shapetype="group" ><path c_fontsize="8" c_fontfamily="" c_text="+3.3V" d="M4054.7273 3289.0182L4054.7273 3295.5636M4058 3292.2909L4051.4545 3292.2909M4048.3273 3287.9273L4044.3273 3287.9273 4046.5091 3290.8364 4045.4182 3290.8364 4044.6909 3291.2 4044.3273 3291.5636 4043.9636 3292.6545 4043.9636 3293.3818 4044.3273 3294.4727 4045.0545 3295.2 4046.1455 3295.5636 4047.2364 3295.5636 4048.3273 3295.2 4048.6909 3294.8364 4049.0545 3294.1091M4041.2 3293.7455L4041.5636 3294.1091 4041.2 3294.4727 4040.8364 3294.1091 4041.2 3293.7455M4037.7091 3287.9273L4033.7091 3287.9273 4035.8909 3290.8364 4034.8 3290.8364 4034.0727 3291.2 4033.7091 3291.5636 4033.3455 3292.6545 4033.3455 3293.3818 4033.7091 3294.4727 4034.4364 3295.2 4035.5273 3295.5636 4036.6182 3295.5636 4037.7091 3295.2 4038.0727 3294.8364 4038.4364 3294.1091M4030.9455 3287.9273L4028.0364 3295.5636M4025.1273 3287.9273L4028.0364 3295.5636" fill="none"  stroke-width="0.8"  /></g><g c_partid="part_pcbtext" c_etype="pinpart" c_origin="4058,3306" c_rotation="0" c_mirror="1" id="gge2393" locked="0" layerid="4" c_shapetype="group" ><path c_fontsize="8" c_fontfamily="" c_text="EN" d="M4058 3297.9273L4058 3305.5636M4058 3297.9273L4053.2727 3297.9273M4058 3301.5636L4055.0909 3301.5636M4058 3305.5636L4053.2727 3305.5636M4050.8727 3297.9273L4050.8727 3305.5636M4050.8727 3297.9273L4045.7818 3305.5636M4045.7818 3297.9273L4045.7818 3305.5636" fill="none"  stroke-width="0.8"  /></g><g c_partid="part_pcbtext" c_etype="pinpart" c_origin="4058,3317" c_rotation="0" c_mirror="1" id="gge2397" locked="0" layerid="4" c_shapetype="group" ><path c_fontsize="8" c_fontfamily="" c_text="GND" d="M4052.5455 3310.7455L4052.9091 3310.0182 4053.6364 3309.2909 4054.3636 3308.9273 4055.8182 3308.9273 4056.5455 3309.2909 4057.2727 3310.0182 4057.6364 3310.7455 4058 3311.8364 4058 3313.6545 4057.6364 3314.7455 4057.2727 3315.4727 4056.5455 3316.2 4055.8182 3316.5636 4054.3636 3316.5636 4053.6364 3316.2 4052.9091 3315.4727 4052.5455 3314.7455 4052.5455 3313.6545M4054.3636 3313.6545L4052.5455 3313.6545M4050.1455 3308.9273L4050.1455 3316.5636M4050.1455 3308.9273L4045.0545 3316.5636M4045.0545 3308.9273L4045.0545 3316.5636M4042.6545 3308.9273L4042.6545 3316.5636M4042.6545 3308.9273L4040.1091 3308.9273 4039.0182 3309.2909 4038.2909 3310.0182 4037.9273 3310.7455 4037.5636 3311.8364 4037.5636 3313.6545 4037.9273 3314.7455 4038.2909 3315.4727 4039.0182 3316.2 4040.1091 3316.5636 4042.6545 3316.5636" fill="none"  stroke-width="0.8"  /></g><g c_partid="part_pcbtext" c_etype="pinpart" c_origin="4058,3327" c_rotation="0" c_mirror="1" id="gge2401" locked="0" layerid="4" c_shapetype="group" ><path c_fontsize="8" c_fontfamily="" c_text="GND" d="M4052.5455 3320.7455L4052.9091 3320.0182 4053.6364 3319.2909 4054.3636 3318.9273 4055.8182 3318.9273 4056.5455 3319.2909 4057.2727 3320.0182 4057.6364 3320.7455 4058 3321.8364 4058 3323.6545 4057.6364 3324.7455 4057.2727 3325.4727 4056.5455 3326.2 4055.8182 3326.5636 4054.3636 3326.5636 4053.6364 3326.2 4052.9091 3325.4727 4052.5455 3324.7455 4052.5455 3323.6545M4054.3636 3323.6545L4052.5455 3323.6545M4050.1455 3318.9273L4050.1455 3326.5636M4050.1455 3318.9273L4045.0545 3326.5636M4045.0545 3318.9273L4045.0545 3326.5636M4042.6545 3318.9273L4042.6545 3326.5636M4042.6545 3318.9273L4040.1091 3318.9273 4039.0182 3319.2909 4038.2909 3320.0182 4037.9273 3320.7455 4037.5636 3321.8364 4037.5636 3323.6545 4037.9273 3324.7455 4038.2909 3325.4727 4039.0182 3326.2 4040.1091 3326.5636 4042.6545 3326.5636" fill="none"  stroke-width="0.8"  /></g><g c_partid="part_pcbtext" c_etype="pinpart" c_origin="4102,3296" c_rotation="0" c_mirror="1" id="gge2405" locked="0" layerid="4" c_shapetype="group" ><path c_fontsize="8" c_fontfamily="" c_text="RXD" d="M 4102 3287.9273 L 4102 3295.5636 M 4102 3287.9273 L 4098.7273 3287.9273 L 4097.6364 3288.2909 L 4097.2727 3288.6545 L 4096.9091 3289.3818 L 4096.9091 3290.1091 L 4097.2727 3290.8364 L 4097.6364 3291.2 L 4098.7273 3291.5636 L 4102 3291.5636 M 4099.4545 3291.5636 L 4096.9091 3295.5636 M 4094.5091 3287.9273 L 4089.4182 3295.5636 M 4089.4182 3287.9273 L 4094.5091 3295.5636 M 4087.0182 3287.9273 L 4087.0182 3295.5636 M 4087.0182 3287.9273 L 4084.4727 3287.9273 L 4083.3818 3288.2909 L 4082.6545 3289.0182 L 4082.2909 3289.7455 L 4081.9273 3290.8364 L 4081.9273 3292.6545 L 4082.2909 3293.7455 L 4082.6545 3294.4727 L 4083.3818 3295.2 L 4084.4727 3295.5636 L 4087.0182 3295.5636" fill="none"  stroke-width="0.8"  /></g><g c_partid="part_pcbtext" c_etype="pinpart" c_origin="4101.5,3306" c_rotation="0" c_mirror="1" id="gge2409" locked="0" layerid="4" c_shapetype="group" ><path c_fontsize="8" c_fontfamily="" c_text="TXD" d="M 4098.9545 3297.9273 L 4098.9545 3305.5636 M 4101.5 3297.9273 L 4096.4091 3297.9273 M 4094.0091 3297.9273 L 4088.9182 3305.5636 M 4088.9182 3297.9273 L 4094.0091 3305.5636 M 4086.5182 3297.9273 L 4086.5182 3305.5636 M 4086.5182 3297.9273 L 4083.9727 3297.9273 L 4082.8818 3298.2909 L 4082.1545 3299.0182 L 4081.7909 3299.7455 L 4081.4273 3300.8364 L 4081.4273 3302.6545 L 4081.7909 3303.7455 L 4082.1545 3304.4727 L 4082.8818 3305.2 L 4083.9727 3305.5636 L 4086.5182 3305.5636" fill="none"  stroke-width="0.8"  /></g><g c_partid="part_pcbtext" c_etype="pinpart" c_origin="4097.5,3316.5" c_rotation="0" c_mirror="1" id="gge2413" locked="0" layerid="4" c_shapetype="group" ><path c_fontsize="8" c_fontfamily="" c_text="IO2" d="M4097.5 3308.4273L4097.5 3316.0636M4092.9182 3308.4273L4093.6455 3308.7909 4094.3727 3309.5182 4094.7364 3310.2455 4095.1 3311.3364 4095.1 3313.1545 4094.7364 3314.2455 4094.3727 3314.9727 4093.6455 3315.7 4092.9182 3316.0636 4091.4636 3316.0636 4090.7364 3315.7 4090.0091 3314.9727 4089.6455 3314.2455 4089.2818 3313.1545 4089.2818 3311.3364 4089.6455 3310.2455 4090.0091 3309.5182 4090.7364 3308.7909 4091.4636 3308.4273 4092.9182 3308.4273M4086.5182 3310.2455L4086.5182 3309.8818 4086.1545 3309.1545 4085.7909 3308.7909 4085.0636 3308.4273 4083.6091 3308.4273 4082.8818 3308.7909 4082.5182 3309.1545 4082.1545 3309.8818 4082.1545 3310.6091 4082.5182 3311.3364 4083.2455 3312.4273 4086.8818 3316.0636 4081.7909 3316.0636" fill="none"  stroke-width="0.8"  /></g><g c_partid="part_pcbtext" c_etype="pinpart" c_origin="4097,3326.5" c_rotation="0" c_mirror="1" id="gge2417" locked="0" layerid="4" c_shapetype="group" ><path c_fontsize="8" c_fontfamily="" c_text="IO0" d="M 4097 3318.4273 L 4097 3326.0636 M 4092.4182 3318.4273 L 4093.1455 3318.7909 L 4093.8727 3319.5182 L 4094.2364 3320.2455 L 4094.6 3321.3364 L 4094.6 3323.1545 L 4094.2364 3324.2455 L 4093.8727 3324.9727 L 4093.1455 3325.7 L 4092.4182 3326.0636 L 4090.9636 3326.0636 L 4090.2364 3325.7 L 4089.5091 3324.9727 L 4089.1455 3324.2455 L 4088.7818 3323.1545 L 4088.7818 3321.3364 L 4089.1455 3320.2455 L 4089.5091 3319.5182 L 4090.2364 3318.7909 L 4090.9636 3318.4273 L 4092.4182 3318.4273 M 4084.2 3318.4273 L 4085.2909 3318.7909 L 4086.0182 3319.8818 L 4086.3818 3321.7 L 4086.3818 3322.7909 L 4086.0182 3324.6091 L 4085.2909 3325.7 L 4084.2 3326.0636 L 4083.4727 3326.0636 L 4082.3818 3325.7 L 4081.6545 3324.6091 L 4081.2909 3322.7909 L 4081.2909 3321.7 L 4081.6545 3319.8818 L 4082.3818 3318.7909 L 4083.4727 3318.4273 L 4084.2 3318.4273" fill="none"  stroke-width="0.8"  /></g></g><g transform="matrix(-1, 0, 0, 1, 8140, 0)"><g c_partid="part_pad" c_etype="pinpart" c_origin="4086.22,3423.635" layerid="11" number="27" net="GND" plated ="Y"  id="gge1640" locked="0" c_rotation="0" c_width="3.937" c_height="7.0866" title="GND" c_shape="OVAL" pasteexpansion="0" solderexpansion="0.2"><polyline  c_etype="pad_shell" points="4086.22 3422.0602 4086.22 3425.2098" layerid="11" stroke-width="3.937" /><polyline c_etype="pad_hole" points="4086.2194 3425.2091 4086.2194 3422.0596" layerid="11" stroke-width="1.9686"></polyline></g><g c_partid="part_pad" c_etype="pinpart" c_origin="4086.22,3401.548" layerid="11" number="28" net="GND" plated ="Y"  id="gge1645" locked="0" c_rotation="0" c_width="3.937" c_height="6.2992" title="GND" c_shape="OVAL" pasteexpansion="0" solderexpansion="0.2"><polyline  c_etype="pad_shell" points="4086.22 3400.3669 4086.22 3402.7291" layerid="11" stroke-width="3.937" /><polyline c_etype="pad_hole" points="4086.2198 3402.7289 4086.2198 3400.3667" layerid="11" stroke-width="1.9686"></polyline></g><g c_partid="part_pad" c_etype="pinpart" c_origin="4050.787,3423.635" layerid="11" number="26" net="GND" plated ="Y"  id="gge1650" locked="0" c_rotation="0" c_width="3.937" c_height="7.0866" title="GND" c_shape="OVAL" pasteexpansion="0" solderexpansion="0.2"><polyline  c_etype="pad_shell" points="4050.787 3422.0602 4050.787 3425.2098" layerid="11" stroke-width="3.937" /><polyline c_etype="pad_hole" points="4050.7868 3425.2091 4050.7868 3422.0596" layerid="11" stroke-width="1.9686"></polyline></g><g c_partid="part_pad" c_etype="pinpart" c_origin="4050.787,3401.548" layerid="11" number="25" net="GND" plated ="Y"  id="gge1655" locked="0" c_rotation="0" c_width="3.937" c_height="6.2992" title="GND" c_shape="OVAL" pasteexpansion="0" solderexpansion="0.2"><polyline  c_etype="pad_shell" points="4050.787 3400.3669 4050.787 3402.7291" layerid="11" stroke-width="3.937" /><polyline c_etype="pad_hole" points="4050.7868 3402.7289 4050.7868 3400.3667" layerid="11" stroke-width="1.9686"></polyline></g><g c_partid="part_pad" c_etype="pinpart" c_origin="4056.495,3404.934" layerid="11" number="B12" net="GND" plated ="Y"  id="gge1660" locked="0" c_rotation="90" c_width="2.5591" c_height="2.5591" title="GND" c_shape="ELLIPSE" pasteexpansion="0" solderexpansion="0.2"><ellipse c_etype="pad_shell" cx="4056.495" cy="3404.934" rx="1.27955" ry="1.27955" layerid="11" stroke-width="0"/><circle c_etype="pad_hole" cx="4056.495" cy="3404.9337" r="0.7874" layerid="11" stroke-width="0"/></g><g c_partid="part_pad" c_etype="pinpart" c_origin="4059.055,3407.69" layerid="11" number="B11" net="" plated ="Y"  id="gge1665" locked="0" c_rotation="0" c_width="2.5591" c_height="2.5591" title="" c_shape="ELLIPSE" pasteexpansion="0" solderexpansion="0.2"><ellipse c_etype="pad_shell" cx="4059.055" cy="3407.69" rx="1.27955" ry="1.27955" layerid="11" stroke-width="0"/><circle c_etype="pad_hole" cx="4059.0545" cy="3407.6893" r="0.7874" layerid="11" stroke-width="0"/></g><g c_partid="part_pad" c_etype="pinpart" c_origin="4062.204,3407.69" layerid="11" number="B10" net="" plated ="Y"  id="gge1670" locked="0" c_rotation="0" c_width="2.5591" c_height="2.5591" title="" c_shape="ELLIPSE" pasteexpansion="0" solderexpansion="0.2"><ellipse c_etype="pad_shell" cx="4062.204" cy="3407.69" rx="1.27955" ry="1.27955" layerid="11" stroke-width="0"/><circle c_etype="pad_hole" cx="4062.2041" cy="3407.6892" r="0.7874" layerid="11" stroke-width="0"/></g><g c_partid="part_pad" c_etype="pinpart" c_origin="4063.779,3404.934" layerid="11" number="B9" net="+5V" plated ="Y"  id="gge1675" locked="0" c_rotation="0" c_width="2.5591" c_height="2.5591" title="+5V" c_shape="ELLIPSE" pasteexpansion="0" solderexpansion="0.2"><ellipse c_etype="pad_shell" cx="4063.779" cy="3404.934" rx="1.27955" ry="1.27955" layerid="11" stroke-width="0"/><circle c_etype="pad_hole" cx="4063.7789" cy="3404.9336" r="0.7874" layerid="11" stroke-width="0"/></g><g c_partid="part_pad" c_etype="pinpart" c_origin="4065.354,3407.69" layerid="11" number="B8" net="" plated ="Y"  id="gge1680" locked="0" c_rotation="0" c_width="2.5591" c_height="2.5591" title="" c_shape="ELLIPSE" pasteexpansion="0" solderexpansion="0.2"><ellipse c_etype="pad_shell" cx="4065.354" cy="3407.69" rx="1.27955" ry="1.27955" layerid="11" stroke-width="0"/><circle c_etype="pad_hole" cx="4065.3537" cy="3407.6892" r="0.7874" layerid="11" stroke-width="0"/></g><g c_partid="part_pad" c_etype="pinpart" c_origin="4066.929,3404.934" layerid="11" number="B7" net="D-" plated ="Y"  id="gge1685" locked="0" c_rotation="0" c_width="2.5591" c_height="2.5591" title="D-" c_shape="ELLIPSE" pasteexpansion="0" solderexpansion="0.2"><ellipse c_etype="pad_shell" cx="4066.929" cy="3404.934" rx="1.27955" ry="1.27955" layerid="11" stroke-width="0"/><circle c_etype="pad_hole" cx="4066.9285" cy="3404.9336" r="0.7874" layerid="11" stroke-width="0"/></g><g c_partid="part_pad" c_etype="pinpart" c_origin="4070.078,3404.934" layerid="11" number="B6" net="D+" plated ="Y"  id="gge1690" locked="0" c_rotation="0" c_width="2.5591" c_height="2.5591" title="D+" c_shape="ELLIPSE" pasteexpansion="0" solderexpansion="0.2"><ellipse c_etype="pad_shell" cx="4070.078" cy="3404.934" rx="1.27955" ry="1.27955" layerid="11" stroke-width="0"/><circle c_etype="pad_hole" cx="4070.0781" cy="3404.9336" r="0.7874" layerid="11" stroke-width="0"/></g><g c_partid="part_pad" c_etype="pinpart" c_origin="4071.653,3407.69" layerid="11" number="B5" net="R2_2" plated ="Y"  id="gge1695" locked="0" c_rotation="0" c_width="2.5591" c_height="2.5591" title="R2_2" c_shape="ELLIPSE" pasteexpansion="0" solderexpansion="0.2"><ellipse c_etype="pad_shell" cx="4071.653" cy="3407.69" rx="1.27955" ry="1.27955" layerid="11" stroke-width="0"/><circle c_etype="pad_hole" cx="4071.6529" cy="3407.6892" r="0.7874" layerid="11" stroke-width="0"/></g><g c_partid="part_pad" c_etype="pinpart" c_origin="4073.228,3404.934" layerid="11" number="B4" net="+5V" plated ="Y"  id="gge1700" locked="0" c_rotation="0" c_width="2.5591" c_height="2.5591" title="+5V" c_shape="ELLIPSE" pasteexpansion="0" solderexpansion="0.2"><ellipse c_etype="pad_shell" cx="4073.228" cy="3404.934" rx="1.27955" ry="1.27955" layerid="11" stroke-width="0"/><circle c_etype="pad_hole" cx="4073.2277" cy="3404.9336" r="0.7874" layerid="11" stroke-width="0"/></g><g c_partid="part_pad" c_etype="pinpart" c_origin="4074.803,3407.69" layerid="11" number="B3" net="" plated ="Y"  id="gge1705" locked="0" c_rotation="0" c_width="2.5591" c_height="2.5591" title="" c_shape="ELLIPSE" pasteexpansion="0" solderexpansion="0.2"><ellipse c_etype="pad_shell" cx="4074.803" cy="3407.69" rx="1.27955" ry="1.27955" layerid="11" stroke-width="0"/><circle c_etype="pad_hole" cx="4074.8025" cy="3407.6892" r="0.7874" layerid="11" stroke-width="0"/></g><g c_partid="part_pad" c_etype="pinpart" c_origin="4077.952,3407.69" layerid="11" number="B2" net="" plated ="Y"  id="gge1710" locked="0" c_rotation="0" c_width="2.5591" c_height="2.5591" title="" c_shape="ELLIPSE" pasteexpansion="0" solderexpansion="0.2"><ellipse c_etype="pad_shell" cx="4077.952" cy="3407.69" rx="1.27955" ry="1.27955" layerid="11" stroke-width="0"/><circle c_etype="pad_hole" cx="4077.9521" cy="3407.6892" r="0.7874" layerid="11" stroke-width="0"/></g><g c_partid="part_pad" c_etype="pinpart" c_origin="4080.511,3404.934" layerid="11" number="B1" net="GND" plated ="Y"  id="gge1715" locked="0" c_rotation="90" c_width="2.5591" c_height="2.5591" title="GND" c_shape="ELLIPSE" pasteexpansion="0" solderexpansion="0.2"><ellipse c_etype="pad_shell" cx="4080.511" cy="3404.934" rx="1.27955" ry="1.27955" layerid="11" stroke-width="0"/><circle c_etype="pad_hole" cx="4080.511" cy="3404.9338" r="0.7874" layerid="11" stroke-width="0"/></g><g c_partid="part_pad" c_etype="pinpart" c_origin="4075,3292" layerid="11" number="1" net="RXD" plated ="Y"  id="gge201" locked="0" c_rotation="270" c_width="6.6929" c_height="6.6929" title="RXD" c_shape="RECT" pasteexpansion="0" solderexpansion="0.2"><polygon  c_etype="pad_shell" points="4078.3465 3288.6535 4078.3465 3295.3465 4071.6535 3295.3465 4071.6535 3288.6535" layerid="11" stroke-width="0" /><circle c_etype="pad_hole" cx="4075" cy="3292" r="2.1654" layerid="11" stroke-width="0"/></g><g c_partid="part_pad" c_etype="pinpart" c_origin="4075,3302" layerid="11" number="2" net="TXD" plated ="Y"  id="gge206" locked="0" c_rotation="270" c_width="6.6929" c_height="6.6929" title="TXD" c_shape="ELLIPSE" pasteexpansion="0" solderexpansion="0.2"><ellipse c_etype="pad_shell" cx="4075" cy="3302" rx="3.34645" ry="3.34645" layerid="11" stroke-width="0"/><circle c_etype="pad_hole" cx="4075" cy="3302" r="2.1654" layerid="11" stroke-width="0"/></g><g c_partid="part_pad" c_etype="pinpart" c_origin="4075,3312" layerid="11" number="3" net="IO2" plated ="Y"  id="gge211" locked="0" c_rotation="270" c_width="6.6929" c_height="6.6929" title="IO2" c_shape="ELLIPSE" pasteexpansion="0" solderexpansion="0.2"><ellipse c_etype="pad_shell" cx="4075" cy="3312" rx="3.34645" ry="3.34645" layerid="11" stroke-width="0"/><circle c_etype="pad_hole" cx="4075" cy="3312" r="2.1654" layerid="11" stroke-width="0"/></g><g c_partid="part_pad" c_etype="pinpart" c_origin="4075,3322" layerid="11" number="4" net="IO0" plated ="Y"  id="gge216" locked="0" c_rotation="270" c_width="6.6929" c_height="6.6929" title="IO0" c_shape="ELLIPSE" pasteexpansion="0" solderexpansion="0.2"><ellipse c_etype="pad_shell" cx="4075" cy="3322" rx="3.34645" ry="3.34645" layerid="11" stroke-width="0"/><circle c_etype="pad_hole" cx="4075" cy="3322" r="2.1654" layerid="11" stroke-width="0"/></g><g c_partid="part_pad" c_etype="pinpart" c_origin="4065,3292" layerid="11" number="1" net="+3.3V" plated ="Y"  id="gge237" locked="0" c_rotation="270" c_width="6.6929" c_height="6.6929" title="+3.3V" c_shape="RECT" pasteexpansion="0" solderexpansion="0.2"><polygon  c_etype="pad_shell" points="4068.3465 3288.6535 4068.3465 3295.3465 4061.6535 3295.3465 4061.6535 3288.6535" layerid="11" stroke-width="0" /><circle c_etype="pad_hole" cx="4065" cy="3292" r="2.1654" layerid="11" stroke-width="0"/></g><g c_partid="part_pad" c_etype="pinpart" c_origin="4065,3302" layerid="11" number="2" net="EN" plated ="Y"  id="gge242" locked="0" c_rotation="270" c_width="6.6929" c_height="6.6929" title="EN" c_shape="ELLIPSE" pasteexpansion="0" solderexpansion="0.2"><ellipse c_etype="pad_shell" cx="4065" cy="3302" rx="3.34645" ry="3.34645" layerid="11" stroke-width="0"/><circle c_etype="pad_hole" cx="4065" cy="3302" r="2.1654" layerid="11" stroke-width="0"/></g><g c_partid="part_pad" c_etype="pinpart" c_origin="4065,3312" layerid="11" number="3" net="GND" plated ="Y"  id="gge247" locked="0" c_rotation="270" c_width="6.6929" c_height="6.6929" title="GND" c_shape="ELLIPSE" pasteexpansion="0" solderexpansion="0.2"><ellipse c_etype="pad_shell" cx="4065" cy="3312" rx="3.34645" ry="3.34645" layerid="11" stroke-width="0"/><circle c_etype="pad_hole" cx="4065" cy="3312" r="2.1654" layerid="11" stroke-width="0"/></g><g c_partid="part_pad" c_etype="pinpart" c_origin="4065,3322" layerid="11" number="4" net="GND" plated ="Y"  id="gge252" locked="0" c_rotation="270" c_width="6.6929" c_height="6.6929" title="GND" c_shape="ELLIPSE" pasteexpansion="0" solderexpansion="0.2"><ellipse c_etype="pad_shell" cx="4065" cy="3322" rx="3.34645" ry="3.34645" layerid="11" stroke-width="0"/><circle c_etype="pad_hole" cx="4065" cy="3322" r="2.1654" layerid="11" stroke-width="0"/></g><g c_partid="part_via" c_etype="pinpart" c_shapetype="group" net="GND" c_origin="4030.876,3395.872" layerid="11" id="gge2138" locked="0" solderexpansion=""><circle cx="4030.876" cy="3395.872" r="1.2008" stroke-width="0" c_etype="pad_shell"/><circle cx="4030.876" cy="3395.872" r="0.6004"  stroke-width="0" c_etype="pad_hole"/></g><g c_partid="part_via" c_etype="pinpart" c_shapetype="group" net="+5V" c_origin="4078.318,3386.168" layerid="11" id="gge2158" locked="0" solderexpansion=""><circle cx="4078.318" cy="3386.168" r="1.2008" stroke-width="0" c_etype="pad_shell"/><circle cx="4078.318" cy="3386.168" r="0.6004"  stroke-width="0" c_etype="pad_hole"/></g><g c_partid="part_via" c_etype="pinpart" c_shapetype="group" net="DTR" c_origin="4085.809,3330.885" layerid="11" id="gge2166" locked="0" solderexpansion=""><circle cx="4085.809" cy="3330.885" r="1.2008" stroke-width="0" c_etype="pad_shell"/><circle cx="4085.809" cy="3330.885" r="0.6004"  stroke-width="0" c_etype="pad_hole"/></g><g c_partid="part_via" c_etype="pinpart" c_shapetype="group" net="DTR" c_origin="4062.642,3353.627" layerid="11" id="gge2167" locked="0" solderexpansion=""><circle cx="4062.642" cy="3353.627" r="1.2008" stroke-width="0" c_etype="pad_shell"/><circle cx="4062.642" cy="3353.627" r="0.6004"  stroke-width="0" c_etype="pad_hole"/></g><g c_partid="part_via" c_etype="pinpart" c_shapetype="group" net="RTS" c_origin="4103.441,3366.439" layerid="11" id="gge2177" locked="0" solderexpansion=""><circle cx="4103.441" cy="3366.439" r="1.2008" stroke-width="0" c_etype="pad_shell"/><circle cx="4103.441" cy="3366.439" r="0.6004"  stroke-width="0" c_etype="pad_hole"/></g><g c_partid="part_via" c_etype="pinpart" c_shapetype="group" net="RTS" c_origin="4078.331,3356.482" layerid="11" id="gge2178" locked="0" solderexpansion=""><circle cx="4078.331" cy="3356.482" r="1.2008" stroke-width="0" c_etype="pad_shell"/><circle cx="4078.331" cy="3356.482" r="0.6004"  stroke-width="0" c_etype="pad_hole"/></g><g c_partid="part_via" c_etype="pinpart" c_shapetype="group" net="D-" c_origin="4069.896,3397.178" layerid="11" id="gge2186" locked="0" solderexpansion=""><circle cx="4069.896" cy="3397.178" r="1.2008" stroke-width="0" c_etype="pad_shell"/><circle cx="4069.896" cy="3397.178" r="0.6004"  stroke-width="0" c_etype="pad_hole"/></g><g c_partid="part_via" c_etype="pinpart" c_shapetype="group" net="D+" c_origin="4068.329,3409.382" layerid="11" id="gge2194" locked="0" solderexpansion=""><circle cx="4068.329" cy="3409.382" r="1.2008" stroke-width="0" c_etype="pad_shell"/><circle cx="4068.329" cy="3409.382" r="0.6004"  stroke-width="0" c_etype="pad_hole"/></g><g c_partid="part_via" c_etype="pinpart" c_shapetype="group" net="D+" c_origin="4071.433,3388.502" layerid="11" id="gge2195" locked="0" solderexpansion=""><circle cx="4071.433" cy="3388.502" r="1.2008" stroke-width="0" c_etype="pad_shell"/><circle cx="4071.433" cy="3388.502" r="0.6004"  stroke-width="0" c_etype="pad_hole"/></g><g c_partid="part_via" c_etype="pinpart" c_shapetype="group" net="TXD" c_origin="4106,3336.5" layerid="11" id="gge2238" locked="0" solderexpansion=""><circle cx="4106" cy="3336.5" r="1.2" stroke-width="0" c_etype="pad_shell"/><circle cx="4106" cy="3336.5" r="0.6"  stroke-width="0" c_etype="pad_hole"/></g><g c_partid="part_via" c_etype="pinpart" c_shapetype="group" net="TXD" c_origin="4106,3303" layerid="11" id="gge2240" locked="0" solderexpansion=""><circle cx="4106" cy="3303" r="1.2" stroke-width="0" c_etype="pad_shell"/><circle cx="4106" cy="3303" r="0.6"  stroke-width="0" c_etype="pad_hole"/></g><g c_partid="part_via" c_etype="pinpart" c_shapetype="group" net="RXD" c_origin="4098,3336.5" layerid="11" id="gge2243" locked="0" solderexpansion=""><circle cx="4098" cy="3336.5" r="1.2" stroke-width="0" c_etype="pad_shell"/><circle cx="4098" cy="3336.5" r="0.6"  stroke-width="0" c_etype="pad_hole"/></g><g c_partid="part_via" c_etype="pinpart" c_shapetype="group" net="RXD" c_origin="4098,3292" layerid="11" id="gge2245" locked="0" solderexpansion=""><circle cx="4098" cy="3292" r="1.2" stroke-width="0" c_etype="pad_shell"/><circle cx="4098" cy="3292" r="0.6"  stroke-width="0" c_etype="pad_hole"/></g><g c_partid="part_via" c_etype="pinpart" c_shapetype="group" net="R2_2" c_origin="4052.5,3414" layerid="11" id="gge2249" locked="0" solderexpansion=""><circle cx="4052.5" cy="3414" r="1.2" stroke-width="0" c_etype="pad_shell"/><circle cx="4052.5" cy="3414" r="0.6"  stroke-width="0" c_etype="pad_hole"/></g><g c_partid="part_via" c_etype="pinpart" c_shapetype="group" net="R2_2" c_origin="4046.5,3406" layerid="11" id="gge2251" locked="0" solderexpansion=""><circle cx="4046.5" cy="3406" r="1.2" stroke-width="0" c_etype="pad_shell"/><circle cx="4046.5" cy="3406" r="0.6"  stroke-width="0" c_etype="pad_hole"/></g><g c_partid="part_via" c_etype="pinpart" c_shapetype="group" net="GND" c_origin="4056.256,3390" layerid="11" id="gge2256" locked="0" solderexpansion=""><circle cx="4056.256" cy="3390" r="1.2" stroke-width="0" c_etype="pad_shell"/><circle cx="4056.256" cy="3390" r="0.6"  stroke-width="0" c_etype="pad_hole"/></g><g c_partid="part_via" c_etype="pinpart" c_shapetype="group" net="+5V" c_origin="4064,3393" layerid="11" id="gge2264" locked="0" solderexpansion=""><circle cx="4064" cy="3393" r="1.2" stroke-width="0" c_etype="pad_shell"/><circle cx="4064" cy="3393" r="0.6"  stroke-width="0" c_etype="pad_hole"/></g><g c_partid="part_via" c_etype="pinpart" c_shapetype="group" net="GND" c_origin="4084,3389.5" layerid="11" id="gge2277" locked="0" solderexpansion=""><circle cx="4084" cy="3389.5" r="1.2" stroke-width="0" c_etype="pad_shell"/><circle cx="4084" cy="3389.5" r="0.6"  stroke-width="0" c_etype="pad_hole"/></g><g c_partid="part_via" c_etype="pinpart" c_shapetype="group" net="GND" c_origin="4102,3311.5" layerid="11" id="gge2281" locked="0" solderexpansion=""><circle cx="4102" cy="3311.5" r="1.2" stroke-width="0" c_etype="pad_shell"/><circle cx="4102" cy="3311.5" r="0.6"  stroke-width="0" c_etype="pad_hole"/></g><g c_partid="part_via" c_etype="pinpart" c_shapetype="group" net="GND" c_origin="4078,3350.5" layerid="11" id="gge2307" locked="0" solderexpansion=""><circle cx="4078" cy="3350.5" r="1.2" stroke-width="0" c_etype="pad_shell"/><circle cx="4078" cy="3350.5" r="0.6"  stroke-width="0" c_etype="pad_hole"/></g><g c_partid="part_via" c_etype="pinpart" c_shapetype="group" net="GND" c_origin="4056.5,3332.5" layerid="11" id="gge2424" locked="0" solderexpansion=""><circle cx="4056.5" cy="3332.5" r="1.2" stroke-width="0" c_etype="pad_shell"/><circle cx="4056.5" cy="3332.5" r="0.6"  stroke-width="0" c_etype="pad_hole"/></g><g c_partid="part_via" c_etype="pinpart" c_shapetype="group" net="+3.3V" c_origin="4065,3365" layerid="11" id="gge2611" locked="0" solderexpansion=""><circle cx="4065" cy="3365" r="1.2" stroke-width="0" c_etype="pad_shell"/><circle cx="4065" cy="3365" r="0.6"  stroke-width="0" c_etype="pad_hole"/></g><g c_partid="part_via" c_etype="pinpart" c_shapetype="group" net="+3.3V" c_origin="4084,3384" layerid="11" id="gge2613" locked="0" solderexpansion=""><circle cx="4084" cy="3384" r="1.2" stroke-width="0" c_etype="pad_shell"/><circle cx="4084" cy="3384" r="0.6"  stroke-width="0" c_etype="pad_hole"/></g><g c_partid="part_via" c_etype="pinpart" c_shapetype="group" net="+3.3V" c_origin="4096,3396" layerid="11" id="gge2756" locked="0" solderexpansion=""><circle cx="4096" cy="3396" r="1.2" stroke-width="0" c_etype="pad_shell"/><circle cx="4096" cy="3396" r="0.6"  stroke-width="0" c_etype="pad_hole"/></g><path d="M 4081.397 3406.4258 L 4084.9404 3406.4258 A 1.2795 1.2795 0 0 1 4084.9404 3408.9848 L 4081.397 3408.9848 A 1.2795 1.2795 0 0 1 4081.397 3406.4258 Z " stroke-width="0"   net="" type="npth" layerid="11" id="gge1573" locked="0" c_teardrop="" c_targetpad="" c_targetwire="" /><g c_partid="part_hole" c_etype="pinpart" c_shapetype="group" c_origin="4053.838,3407.69" layerid="11" id="gge1574" locked="0" ><circle cx="4053.838" cy="3407.69" r="1.2795"  stroke-width="0" /></g></g><g transform="matrix(-1, 0, 0, 1, 8140, 0)"><polyline points="4020 3275 4120 3275 4120 3432.4803 4020 3432.4803 4020 3275" stroke-width="1"  stroke-linecap="round" fill="none" layerid="10" net="" id="gge993" locked="0" /></g></svg>